<svg xmlns="http://www.w3.org/2000/svg" xmlns:xlink="http://www.w3.org/1999/xlink" width="500" zoomAndPan="magnify" viewBox="0 0 375 374.999991" height="500" preserveAspectRatio="xMidYMid meet" version="1.0"><defs><g/><clipPath id="36264c1346"><path d="M 375 72 L 375 303 C 375 322.09375 367.414062 340.410156 353.910156 353.910156 C 340.410156 367.414062 322.09375 375 303 375 L 72 375 C 52.90625 375 34.589844 367.414062 21.089844 353.910156 C 7.585938 340.410156 0 322.09375 0 303 L 0 72 C 0 32.234375 32.234375 0 72 0 L 303 0 C 322.09375 0 340.410156 7.585938 353.910156 21.089844 C 367.414062 34.589844 375 52.90625 375 72 Z M 375 72 " clip-rule="nonzero"/></clipPath><clipPath id="4850597973"><path d="M 0 0 L 375 0 L 375 375 L 0 375 Z M 0 0 " clip-rule="nonzero"/></clipPath><clipPath id="473cd3d986"><path d="M 375 72 L 375 303 C 375 322.09375 367.414062 340.410156 353.910156 353.910156 C 340.410156 367.414062 322.09375 375 303 375 L 72 375 C 52.90625 375 34.589844 367.414062 21.089844 353.910156 C 7.585938 340.410156 0 322.09375 0 303 L 0 72 C 0 32.234375 32.234375 0 72 0 L 303 0 C 322.09375 0 340.410156 7.585938 353.910156 21.089844 C 367.414062 34.589844 375 52.90625 375 72 Z M 375 72 " clip-rule="nonzero"/></clipPath><clipPath id="881522fc15"><rect x="0" width="375" y="0" height="375"/></clipPath></defs><g clip-path="url(#36264c1346)"><g transform="matrix(1, 0, 0, 1, 0, 0)"><g clip-path="url(#881522fc15)"><g clip-path="url(#4850597973)"><g clip-path="url(#473cd3d986)"><rect x="-82.5" width="540" fill="#2d2b55" height="539.999987" y="-82.499998" fill-opacity="1"/></g></g></g></g></g><g fill="#c4c2ff" fill-opacity="1"><g transform="translate(87.498047, 310.320001)"><g><path d="M 140 -130 L 140 -150 C 140 -152.9375 139.066406 -155.335938 137.203125 -157.203125 C 135.335938 -159.066406 132.9375 -160 130 -160 L 110 -160 C 107.332031 -160 105 -159.066406 103 -157.203125 C 101 -155.335938 100 -152.9375 100 -150 L 100 -90 C 100 -87.332031 101 -85 103 -83 C 105 -81 107.332031 -80 110 -80 L 170 -80 C 172.9375 -80 175.335938 -79.066406 177.203125 -77.203125 C 179.066406 -75.335938 180 -72.9375 180 -70 L 180 -10 C 180 -7.332031 179.066406 -5 177.203125 -3 C 175.335938 -1 172.9375 0 170 0 L 150 0 C 147.332031 0 145 -1 143 -3 C 141 -5 140 -7.332031 140 -10 L 140 -30 C 140 -32.9375 139.066406 -35.335938 137.203125 -37.203125 C 135.335938 -39.066406 132.9375 -40 130 -40 L 110 -40 C 107.332031 -40 105 -39.066406 103 -37.203125 C 101 -35.335938 100 -32.9375 100 -30 L 100 -10 C 100 -7.332031 99.066406 -5 97.203125 -3 C 95.335938 -1 92.9375 0 90 0 L 30 0 C 27.332031 0 25 -1 23 -3 C 21 -5 20 -7.332031 20 -10 L 20 -230 C 20 -232.9375 21 -235.335938 23 -237.203125 C 25 -239.066406 27.332031 -240 30 -240 L 170 -240 C 172.9375 -240 175.335938 -239.066406 177.203125 -237.203125 C 179.066406 -235.335938 180 -232.9375 180 -230 L 180 -130 C 180 -127.332031 179.066406 -125 177.203125 -123 C 175.335938 -121 172.9375 -120 170 -120 L 150 -120 C 147.332031 -120 145 -121 143 -123 C 141 -125 140 -127.332031 140 -130 Z M 140 -130 "/></g></g></g></svg>